<svg width="378" height="246" xmlns="http://www.w3.org/2000/svg" xmlns:xlink="http://www.w3.org/1999/xlink" overflow="hidden"><defs><clipPath id="clip0"><rect x="0" y="0" width="378" height="246"/></clipPath></defs><g clip-path="url(#clip0)"><rect x="0" y="0" width="378" height="246.334" fill="#FFFFFF"/><path d="M32.2274 124.168C24.7887 117.279 19.2308 111.317 20.0871 103.575 20.9435 95.834 31.3374 89.1468 37.9701 95.9352L42 124.016 32.2274 124.168Z" fill="#CDB600" fill-rule="evenodd"/><path d="M12.2274 30C4.78875 23.3417-0.769241 17.5798 0.0871398 10.0983 0.94352 2.61688 11.3374-3.84583 17.9701 2.7147L22 29.8533 12.2274 30Z" fill="#CDB600" fill-rule="evenodd" transform="matrix(-1 0 0 1.00136 82 94.1275)"/><path d="M33.8652 123.167C30.9965 119.97 23.3407 111.511 24.0456 104.732 24.7505 97.9524 31.6953 95.166 36.7706 98.6117L41 123.055 33.8652 123.167Z" fill="#FFFFFF" fill-rule="evenodd"/><path d="M10.4455 26C7.40811 22.8074-0.698064 14.3602 0.0482988 7.58991 0.794662 0.81966 8.14798-1.96298 13.5218 1.47805L18 25.8882 10.4455 26Z" fill="#FFFFFF" fill-rule="evenodd" transform="matrix(-1 0 0 1.00136 79 97.1316)"/><path d="M40.3922 124.004C34.8082 114.391 32.5122 106.612 34.9959 98.8083 37.4795 91.005 47.5798 91.1139 50.2941 93.711L51 124.168 40.3922 124.004Z" fill="#CDB600" fill-rule="evenodd"/><path d="M6.39217 31.8358C0.80815 22.2361-1.48782 14.4671 0.995852 6.67439 3.47952-1.11836 13.5798-1.00957 16.2941 1.58403L17 32 6.39217 31.8358Z" fill="#CDB600" fill-rule="evenodd" transform="matrix(-1 0 0 1.00136 68 92.1248)"/><path d="M43.2683 123.167C40.3243 118.688 37.1525 105.233 38.2069 100.952 39.2614 96.6713 44.5253 92.3077 49.5951 97.4812L50 123.117 43.2683 123.167Z" fill="#FFFFFF" fill-rule="evenodd"/><path d="M5.26834 28C2.32429 23.5268-0.847505 10.0906 0.206947 5.81546 1.2614 1.54032 6.52525-2.81734 11.5951 2.34913L12 27.9505 5.26834 28Z" fill="#FFFFFF" fill-rule="evenodd" transform="matrix(-1 0 0 1.00136 64 95.1289)"/><path d="M47 107.646C47 97.4147 48.7909 89.1208 51 89.1208 53.2091 89.1208 55 97.4147 55 107.646 55 117.877 53.2091 126.171 51 126.171 48.7909 126.171 47 117.877 47 107.646Z" fill="#CDB600" fill-rule="evenodd"/><rect x="32" y="132.179" width="38" height="2.00272" fill="#CDB600"/><rect x="32" y="124.168" width="38" height="7.0095" fill="#CDB600"/><path d="M35 127.673C35 126.843 35.8954 126.171 37 126.171 38.1046 126.171 39 126.843 39 127.673 39 128.503 38.1046 129.175 37 129.175 35.8954 129.175 35 128.503 35 127.673Z" fill="#FFFFFF" fill-rule="evenodd"/><path d="M42 127.673C42 126.843 42.8954 126.171 44 126.171 45.1046 126.171 46 126.843 46 127.673 46 128.503 45.1046 129.175 44 129.175 42.8954 129.175 42 128.503 42 127.673Z" fill="#FFFFFF" fill-rule="evenodd"/><path d="M49 127.673C49 126.843 49.8954 126.171 51 126.171 52.1046 126.171 53 126.843 53 127.673 53 128.503 52.1046 129.175 51 129.175 49.8954 129.175 49 128.503 49 127.673Z" fill="#FFFFFF" fill-rule="evenodd"/><path d="M56 127.673C56 126.843 56.8954 126.171 58 126.171 59.1046 126.171 60 126.843 60 127.673 60 128.503 59.1046 129.175 58 129.175 56.8954 129.175 56 128.503 56 127.673Z" fill="#FFFFFF" fill-rule="evenodd"/><path d="M63 127.673C63 126.843 63.8954 126.171 65 126.171 66.1046 126.171 67 126.843 67 127.673 67 128.503 66.1046 129.175 65 129.175 63.8954 129.175 63 128.503 63 127.673Z" fill="#FFFFFF" fill-rule="evenodd"/><path d="M38 90.6228C38 89.2402 38.8954 88.1194 40 88.1194 41.1046 88.1194 42 89.2402 42 90.6228 42 92.0054 41.1046 93.1262 40 93.1262 38.8954 93.1262 38 92.0054 38 90.6228Z" fill="#CDB600" fill-rule="evenodd"/><path d="M60 90.6228C60 89.2402 60.8954 88.1194 62 88.1194 63.1046 88.1194 64 89.2402 64 90.6228 64 92.0054 63.1046 93.1262 62 93.1262 60.8954 93.1262 60 92.0054 60 90.6228Z" fill="#CDB600" fill-rule="evenodd"/><path d="M73 92.1248C73 91.0188 73.8954 90.1221 75 90.1221 76.1046 90.1221 77 91.0188 77 92.1248 77 93.2309 76.1046 94.1275 75 94.1275 73.8954 94.1275 73 93.2309 73 92.1248Z" fill="#CDB600" fill-rule="evenodd"/><path d="M25 92.1248C25 91.0188 26.1193 90.1221 27.5 90.1221 28.8807 90.1221 30 91.0188 30 92.1248 30 93.2309 28.8807 94.1275 27.5 94.1275 26.1193 94.1275 25 93.2309 25 92.1248Z" fill="#CDB600" fill-rule="evenodd"/><path d="M48.3643 93.1262C48.6332 91.9435 50.0905 88.9161 50.0297 86.7548 49.969 84.5935 48.8154 81.691 48 80.1585L55 80.1086C54.2887 81.0997 52.7838 84.5602 52.684 86.7298 52.5843 88.8994 53.9071 91.5104 54.4015 93.1262L48.3643 93.1262Z" fill="#CDB600" fill-rule="evenodd"/><path d="M57.8739 89.1208C56.9336 88.3978 53.6974 87.2844 51.56 87.2555 49.4225 87.2266 46.5619 88.2677 45.0493 88.9473L44.9999 83.1127C45.9782 83.7055 49.3686 85.0395 51.5353 85.0431 53.7019 85.0467 56.5061 83.7634 57.9999 83.1344L57.8739 89.1208Z" fill="#CDB600" fill-rule="evenodd"/><rect x="118.5" y="110.9" width="26.75" height="15.7714" fill="#CDB600"/><path d="M145.25 110.9 150.5 105.643 150.5 121.415 145.25 126.672Z" fill="#A59200" fill-rule="evenodd"/><path d="M118.5 110.9 123.75 105.643 150.5 105.643 145.25 110.9Z" fill="#D7C432" fill-rule="evenodd"/><path d="M118.5 110.9 123.75 105.643 150.5 105.643 150.5 121.415 145.25 126.672 118.5 126.672ZM118.5 110.9 145.25 110.9 150.5 105.643M145.25 110.9 145.25 126.672" stroke="#172C51" stroke-width="1.33333" stroke-miterlimit="8" fill="none" fill-rule="evenodd"/><rect x="49.5001" y="58.5794" width="90" height="4.00543" stroke="#172C51" stroke-width="1.33333" stroke-miterlimit="8"/><path d="M52.5001 79.6079 52.5001 62.5849" stroke="#172C51" stroke-width="1.33333" stroke-miterlimit="8" fill="none" fill-rule="evenodd"/><path d="M135.5 105.643 135.5 61.5835" stroke="#172C51" stroke-width="1.33333" stroke-miterlimit="8" fill="none" fill-rule="evenodd"/><path d="M95.5001 59.5808 95.5001 41.5564" stroke="#172C51" stroke-width="1.33333" stroke-miterlimit="8" fill="none" fill-rule="evenodd"/><path d="M214.227 105.142C206.789 98.2529 201.231 92.2908 202.087 84.5495 202.944 76.8082 213.337 70.121 219.97 76.9094L224 104.991 214.227 105.142Z" fill="#CDB600" fill-rule="evenodd"/><path d="M12.7832 31C5.00642 24.1197-0.804206 18.1658 0.0911007 10.4349 0.986408 2.70411 11.8528-3.97402 18.7869 2.80519L23 30.8484 12.7832 31Z" fill="#CDB600" fill-rule="evenodd" transform="matrix(-1 0 0 1.00136 264 74.1004)"/><path d="M215.445 104.141C212.408 100.944 204.302 92.4855 205.048 85.706 205.795 78.9266 213.148 76.1402 218.522 79.5859L223 104.029 215.445 104.141Z" fill="#FFFFFF" fill-rule="evenodd"/><path d="M9.86518 26C6.99654 22.8074-0.659283 14.3602 0.0456156 7.58991 0.750514 0.81966 7.69532-1.96298 12.7706 1.47805L17 25.8882 9.86518 26Z" fill="#FFFFFF" fill-rule="evenodd" transform="matrix(-1 0 0 1.00136 260 78.1058)"/><path d="M221.768 104.973C215.856 95.0598 213.425 87.0372 216.054 78.99 218.684 70.9428 229.379 71.0552 232.253 73.7334L233 105.142 221.768 104.973Z" fill="#CDB600" fill-rule="evenodd"/><path d="M6.39217 32.8307C0.80815 22.931-1.48782 14.9192 0.995852 6.88297 3.47952-1.1533 13.5798-1.04112 16.2941 1.63353L17 33 6.39217 32.8307Z" fill="#CDB600" fill-rule="evenodd" transform="matrix(-1 0 0 1.00136 250 72.0977)"/><path d="M225.268 104.141C222.324 99.6618 219.152 86.2074 220.207 81.9265 221.261 77.6455 226.525 73.282 231.595 78.4554L232 104.092 225.268 104.141Z" fill="#FFFFFF" fill-rule="evenodd"/><path d="M5.26834 28C2.32429 23.5268-0.847505 10.0906 0.206947 5.81546 1.2614 1.54032 6.52525-2.81734 11.5951 2.34913L12 27.9505 5.26834 28Z" fill="#FFFFFF" fill-rule="evenodd" transform="matrix(-1 0 0 1.00136 246 76.1031)"/><path d="M229 88.1194C229 78.1648 230.567 70.095 232.5 70.095 234.433 70.095 236 78.1648 236 88.1194 236 98.074 234.433 106.144 232.5 106.144 230.567 106.144 229 98.074 229 88.1194Z" fill="#CDB600" fill-rule="evenodd"/><rect x="214" y="113.153" width="37" height="1.00136" fill="#CDB600"/><rect x="214" y="104.141" width="37" height="7.0095" fill="#CDB600"/><path d="M217 108.147C217 107.04 217.672 106.144 218.5 106.144 219.328 106.144 220 107.04 220 108.147 220 109.253 219.328 110.149 218.5 110.149 217.672 110.149 217 109.253 217 108.147Z" fill="#FFFFFF" fill-rule="evenodd"/><path d="M224 108.147C224 107.04 224.672 106.144 225.5 106.144 226.328 106.144 227 107.04 227 108.147 227 109.253 226.328 110.149 225.5 110.149 224.672 110.149 224 109.253 224 108.147Z" fill="#FFFFFF" fill-rule="evenodd"/><path d="M231 108.147C231 107.04 231.672 106.144 232.5 106.144 233.328 106.144 234 107.04 234 108.147 234 109.253 233.328 110.149 232.5 110.149 231.672 110.149 231 109.253 231 108.147Z" fill="#FFFFFF" fill-rule="evenodd"/><path d="M238 108.147C238 107.04 238.672 106.144 239.5 106.144 240.328 106.144 241 107.04 241 108.147 241 109.253 240.328 110.149 239.5 110.149 238.672 110.149 238 109.253 238 108.147Z" fill="#FFFFFF" fill-rule="evenodd"/><path d="M245 108.147C245 107.04 245.672 106.144 246.5 106.144 247.328 106.144 248 107.04 248 108.147 248 109.253 247.328 110.149 246.5 110.149 245.672 110.149 245 109.253 245 108.147Z" fill="#FFFFFF" fill-rule="evenodd"/><path d="M219 71.0963C219 69.9903 220.119 69.0936 221.5 69.0936 222.881 69.0936 224 69.9903 224 71.0963 224 72.2024 222.881 73.099 221.5 73.099 220.119 73.099 219 72.2024 219 71.0963Z" fill="#CDB600" fill-rule="evenodd"/><path d="M242 71.0963C242 69.9903 242.895 69.0936 244 69.0936 245.105 69.0936 246 69.9903 246 71.0963 246 72.2024 245.105 73.099 244 73.099 242.895 73.099 242 72.2024 242 71.0963Z" fill="#CDB600" fill-rule="evenodd"/><path d="M254 73.0991C254 71.993 255.119 71.0963 256.5 71.0963 257.881 71.0963 259 71.993 259 73.0991 259 74.2051 257.881 75.1018 256.5 75.1018 255.119 75.1018 254 74.2051 254 73.0991Z" fill="#CDB600" fill-rule="evenodd"/><path d="M207 73.0991C207 71.993 207.895 71.0963 209 71.0963 210.105 71.0963 211 71.993 211 73.0991 211 74.2051 210.105 75.1018 209 75.1018 207.895 75.1018 207 74.2051 207 73.0991Z" fill="#CDB600" fill-rule="evenodd"/><path d="M229.364 73.099C229.633 71.9164 231.09 68.8889 231.03 66.7277 230.969 64.5664 229.815 61.6639 229 60.1314L236 60.0814C235.289 61.0725 233.784 64.5331 233.684 66.7027 233.584 68.8723 234.907 71.4833 235.401 73.099L229.364 73.099Z" fill="#CDB600" fill-rule="evenodd"/><path d="M238.874 70.095C237.934 69.2514 234.697 67.9525 232.56 67.9188 230.423 67.885 227.562 69.0997 226.049 69.8926L226 63.0855C226.978 63.7772 230.369 65.3334 232.535 65.3376 234.702 65.3419 237.506 63.8446 239 63.1108L238.874 70.095Z" fill="#CDB600" fill-rule="evenodd"/><rect x="299.5" y="125.67" width="27" height="15.0204" fill="#CDB600"/><path d="M326.5 125.67 331.5 120.664 331.5 135.684 326.5 140.691Z" fill="#A59200" fill-rule="evenodd"/><path d="M299.5 125.67 304.5 120.664 331.5 120.664 326.5 125.67Z" fill="#D7C432" fill-rule="evenodd"/><path d="M299.5 125.67 304.5 120.664 331.5 120.664 331.5 135.684 326.5 140.691 299.5 140.691ZM299.5 125.67 326.5 125.67 331.5 120.664M326.5 125.67 326.5 140.691" stroke="#172C51" stroke-width="1.33333" stroke-miterlimit="8" fill="none" fill-rule="evenodd"/><path d="M231.034 36.2262 326.212 77.084 324.264 81.6345 229.086 40.7767Z" stroke="#172C51" stroke-width="1.33361" stroke-miterlimit="8" fill-rule="evenodd"/><path d="M234.5 60.5821 234.5 42.5577" stroke="#172C51" stroke-width="1.33333" stroke-miterlimit="8" fill="none" fill-rule="evenodd"/><path d="M317.5 120.664 317.5 76.6039" stroke="#172C51" stroke-width="1.33333" stroke-miterlimit="8" fill="none" fill-rule="evenodd"/><path d="M0 53 0 0" stroke="#172C51" stroke-width="1.33333" stroke-miterlimit="8" fill="none" fill-rule="evenodd" transform="matrix(-1 0 0 1.00136 282.5 4.50616)"/><path d="M355.5 19.5265 355.5 126.07C355.5 140.781 345.263 152.707 332.635 152.707L210.365 152.707C197.737 152.707 187.5 140.781 187.5 126.07L187.5 19.5265" stroke="#172C51" stroke-width="1.33333" stroke-miterlimit="8" fill="none" fill-rule="evenodd"/><path d="M187 28.0485C210.762 28.4223 328.634 27.9648 356 28.0485L356 127.374C356 141.089 346.27 152.206 334.267 152.206L208.733 152.206C196.73 152.206 187 141.089 187 127.374L187 28.0485Z" fill="#1F4E79" fill-rule="evenodd" fill-opacity="0.109804"/><text font-family="Yu Gothic,Yu Gothic_MSFontService,sans-serif" font-weight="700" font-size="14.6866" transform="matrix(1 0 0 1.00136 14.6525 180)">同じ重さの王冠と金塊</text><text font-family="Yu Gothic,Yu Gothic_MSFontService,sans-serif" font-weight="700" font-size="14.6866" transform="matrix(1 0 0 1.00136 192.629 181)">王冠の方が浮力が大きい</text><text font-family="Calibri,Calibri_MSFontService,sans-serif" font-weight="700" font-size="14.6866" transform="matrix(1 0 0 1.00136 192.629 198)">→</text><text font-family="Yu Gothic,Yu Gothic_MSFontService,sans-serif" font-weight="700" font-size="14.6866" transform="matrix(1 0 0 1.00136 209.295 198)">排除する液体の量が多い</text><text font-family="Calibri,Calibri_MSFontService,sans-serif" font-weight="700" font-size="14.6866" transform="matrix(1 0 0 1.00136 192.629 216)">→</text><text font-family="Yu Gothic,Yu Gothic_MSFontService,sans-serif" font-weight="700" font-size="14.6866" transform="matrix(1 0 0 1.00136 209.295 216)">体積が大きい</text><text font-family="Calibri,Calibri_MSFontService,sans-serif" font-weight="700" font-size="14.6866" transform="matrix(1 0 0 1.00136 192.629 233)">→</text><text font-family="Yu Gothic,Yu Gothic_MSFontService,sans-serif" font-weight="700" font-size="14.6866" transform="matrix(1 0 0 1.00136 209.295 233)">密度が低い</text></g></svg>