<svg width="255" height="236" xmlns="http://www.w3.org/2000/svg" xmlns:xlink="http://www.w3.org/1999/xlink" overflow="hidden"><defs><clipPath id="clip0"><rect x="0" y="0" width="255" height="236"/></clipPath></defs><g clip-path="url(#clip0)"><rect x="0" y="0" width="255" height="235.988" fill="#FFFFFF"/><text font-family="Yu Gothic,Yu Gothic_MSFontService,sans-serif" font-weight="700" font-size="14.6563" transform="matrix(1 0 0 0.999947 105.515 136)">太陽</text><path d="M24.5 107.994C24.5 54.1494 71.5101 10.4995 129.5 10.4995 187.49 10.4995 234.5 54.1494 234.5 107.994 234.5 161.839 187.49 205.489 129.5 205.489 71.5101 205.489 24.5 161.839 24.5 107.994Z" stroke="#000000" stroke-width="1.33246" stroke-miterlimit="8" fill="none" fill-rule="evenodd"/><path d="M23.5 104.494 68.5 79.4958" stroke="#172C51" stroke-width="1.33246" stroke-miterlimit="8" fill="none" fill-rule="evenodd"/><path d="M68.5 80.4958 115.5 104.494" stroke="#172C51" stroke-width="1.33246" stroke-miterlimit="8" fill="none" fill-rule="evenodd"/><path d="M24.5 104.494 116.5 106.494" stroke="#172C51" stroke-width="1.33246" stroke-miterlimit="8" fill="none" fill-rule="evenodd"/><path d="M59.5 107.994C59.5 73.4784 86.1391 45.4976 119 45.4976 151.861 45.4976 178.5 73.4784 178.5 107.994 178.5 142.51 151.861 170.491 119 170.491 86.1391 170.491 59.5 142.51 59.5 107.994Z" stroke="#000000" stroke-width="1.33246" stroke-miterlimit="8" fill="none" fill-rule="evenodd"/><path d="M102.5 46.9975C102.5 43.9601 104.739 41.4978 107.5 41.4978 110.261 41.4978 112.5 43.9601 112.5 46.9975 112.5 50.0349 110.261 52.4972 107.5 52.4972 104.739 52.4972 102.5 50.0349 102.5 46.9975Z" stroke="#000000" stroke-width="1.33246" stroke-miterlimit="8" fill="#FFFFFF" fill-rule="evenodd"/><path d="M77.5 59.9968C77.5 56.9594 79.9624 54.4972 83 54.4972 86.0375 54.4972 88.5 56.9594 88.5 59.9968 88.5 63.0342 86.0375 65.4965 83 65.4965 79.9624 65.4965 77.5 63.0342 77.5 59.9968Z" stroke="#000000" stroke-width="1.33246" stroke-miterlimit="8" fill="#FFFFFF" fill-rule="evenodd"/><path d="M62.5 79.9958C62.5 76.9584 64.7386 74.496 67.5 74.496 70.2614 74.496 72.5 76.9584 72.5 79.9958 72.5 83.0332 70.2614 85.4955 67.5 85.4955 64.7386 85.4955 62.5 83.0332 62.5 79.9958Z" stroke="#000000" stroke-width="1.33246" stroke-miterlimit="8" fill="#FFFFFF" fill-rule="evenodd"/><path d="M55.5 104.994C55.5 101.957 57.7386 99.4948 60.5 99.4948 63.2614 99.4948 65.5 101.957 65.5 104.994 65.5 108.032 63.2614 110.494 60.5 110.494 57.7386 110.494 55.5 108.032 55.5 104.994Z" stroke="#000000" stroke-width="1.33246" stroke-miterlimit="8" fill="#FFFFFF" fill-rule="evenodd"/><path d="M19.5 103.995C19.5 101.509 21.2909 99.4948 23.5 99.4948 25.7092 99.4948 27.5 101.509 27.5 103.995 27.5 106.48 25.7092 108.494 23.5 108.494 21.2909 108.494 19.5 106.48 19.5 103.995Z" stroke="#000000" stroke-width="1.33246" stroke-miterlimit="8" fill="#FFFFFF" fill-rule="evenodd"/><path d="M105.5 105.994C105.5 99.0913 111.32 93.4951 118.5 93.4951 125.68 93.4951 131.5 99.0913 131.5 105.994 131.5 112.898 125.68 118.494 118.5 118.494 111.32 118.494 105.5 112.898 105.5 105.994Z" stroke="#000000" stroke-width="1.33246" stroke-miterlimit="8" fill="#FFFFFF" fill-rule="evenodd"/><path d="M15.1618 113.417 16.3791 123.866 16.3677 123.798 18.5281 133.517 18.5113 133.455 21.4828 142.59 21.4635 142.538 24.6037 150.018 23.3751 150.534 20.2242 143.028 17.2343 133.837 15.0596 124.054 13.8383 113.571ZM25.8555 141.186 24.5012 151.495 16.1941 145.242C15.9001 145.021 15.8412 144.603 16.0625 144.309 16.2838 144.015 16.7015 143.956 16.9955 144.177L24.3901 149.744 23.3288 150.189 24.5344 141.013C24.5824 140.648 24.917 140.391 25.2818 140.439 25.6466 140.487 25.9035 140.822 25.8555 141.186Z" fill="#172C51"/><path d="M53.1388 125.304 55.0932 131.904 55.078 131.858 57.3861 137.996 57.3566 137.929 60.2834 143.698 60.2367 143.62 63.2955 148.029 62.2007 148.788 59.1158 144.342 56.1518 138.5 53.8224 132.305 51.8612 125.683ZM62.6866 139.13 63.5018 149.495 54.0776 145.102C53.7441 144.947 53.5997 144.55 53.7552 144.217 53.9106 143.883 54.307 143.739 54.6405 143.895L63.0295 147.805 62.0839 148.461 61.3583 139.234C61.3294 138.867 61.6034 138.546 61.9702 138.518 62.3371 138.489 62.6578 138.763 62.6866 139.13Z" fill="#172C51"/><path d="M185.775 113.231 186.102 110.977 186.097 111.029 186.281 108.279 186.279 108.344 186.073 101.659 186.08 101.742 184.869 93.9879 184.89 94.0793 182.77 87.1289 184.044 86.7402 186.178 93.7356 187.403 101.577 187.612 108.335 187.425 111.143 187.094 113.422ZM180.63 95.7884 183.021 85.6699 190.652 92.7317C190.923 92.9816 190.939 93.4031 190.689 93.6731 190.439 93.9431 190.018 93.9595 189.747 93.7096L182.954 87.4235 184.055 87.0877 181.927 96.0948C181.842 96.4529 181.483 96.6746 181.125 96.5899 180.767 96.5053 180.545 96.1465 180.63 95.7884Z" fill="#172C51"/><path d="M240.99 112.479 241.437 109.375 241.432 109.427 241.679 105.639 241.677 105.683 241.674 101.316 241.675 101.357 241.372 96.5161 241.376 96.5573 240.723 91.3471 240.73 91.39 239.678 85.9158 239.688 85.9616 238.187 80.3287 238.202 80.3781 236.64 75.9358 237.897 75.4938 239.468 79.9605 240.982 85.6413 242.042 91.1599 242.7 96.4122 243.006 101.295 243.01 105.704 242.76 109.54 242.309 112.669ZM234.867 84.6777 236.83 74.4675 244.752 81.2019C245.032 81.4402 245.066 81.8606 244.828 82.1409 244.589 82.4213 244.169 82.4553 243.889 82.217L236.837 76.2224 237.923 75.8406 236.175 84.9292C236.106 85.2905 235.757 85.5271 235.395 85.4577 235.034 85.3882 234.797 85.039 234.867 84.6777Z" fill="#172C51"/><path d="M57.5 88.6348C63.6666 93.9519 72.0833 90.8376 77.5 87.4954" stroke="#172C51" stroke-width="1.33246" stroke-miterlimit="8" fill="none" fill-rule="evenodd"/><text font-family="Yu Gothic,Yu Gothic_MSFontService,sans-serif" font-weight="700" font-size="14.6563" transform="matrix(1 0 0 0.999947 93.0511 188)">地球の軌道</text><text font-family="Yu Gothic,Yu Gothic_MSFontService,sans-serif" font-weight="700" font-size="14.6563" transform="matrix(1 0 0 0.999947 107.442 223)">火星の軌道</text><text font-family="Cambria Math,Cambria Math_MSFontService,sans-serif" font-weight="400" font-size="11.9915" transform="matrix(1 0 0 0.999947 69.388 101)">𝜽</text><text font-family="Cambria Math,Cambria Math_MSFontService,sans-serif" font-weight="400" font-size="11.9915" transform="matrix(1 0 0 0.999947 45.0087 117)">𝑬</text><text font-family="Cambria Math,Cambria Math_MSFontService,sans-serif" font-weight="400" font-size="8.75382" transform="matrix(1 0 0 0.999947 52.837 120)">𝟏</text><text font-family="Cambria Math,Cambria Math_MSFontService,sans-serif" font-weight="400" font-size="11.9915" transform="matrix(1 0 0 0.999947 47.1407 79)">𝑬</text><text font-family="Cambria Math,Cambria Math_MSFontService,sans-serif" font-weight="400" font-size="8.75382" transform="matrix(1 0 0 0.999947 54.9689 81)">𝟐</text><text font-family="Cambria Math,Cambria Math_MSFontService,sans-serif" font-weight="400" font-size="11.9915" transform="matrix(1 0 0 0.999947 64.1962 53)">𝑬</text><text font-family="Cambria Math,Cambria Math_MSFontService,sans-serif" font-weight="400" font-size="8.75382" transform="matrix(1 0 0 0.999947 72.0244 55)">𝟑</text><text font-family="Cambria Math,Cambria Math_MSFontService,sans-serif" font-weight="400" font-size="11.9915" transform="matrix(1 0 0 0.999947 92.9774 36)">𝑬</text><text font-family="Cambria Math,Cambria Math_MSFontService,sans-serif" font-weight="400" font-size="8.75382" transform="matrix(1 0 0 0.999947 100.806 39)">𝟒</text><text font-family="Cambria Math,Cambria Math_MSFontService,sans-serif" font-weight="400" font-size="11.9915" transform="matrix(1 0 0 0.999947 5.42978 106)">𝑴</text></g></svg>