<svg width="643" height="217" xmlns="http://www.w3.org/2000/svg" xmlns:xlink="http://www.w3.org/1999/xlink" overflow="hidden"><defs><clipPath id="clip0"><rect x="0" y="0" width="643" height="217"/></clipPath></defs><g clip-path="url(#clip0)"><rect x="0" y="0" width="643" height="217.496" fill="#FFFFFF"/><text font-family="Yu Gothic,Yu Gothic_MSFontService,sans-serif" font-weight="700" font-size="14.6442" transform="matrix(1 0 0 0.99769 90.079 203)">実数</text><path d="M61.9012 88.9407 62.0394 86.2446 62.6509 82.2977 64.9875 74.8827 68.6925 68.1587 73.5983 62.3017 79.5435 57.4697 86.3671 53.8214 93.8911 51.5207 97.8949 50.9187 102 50.7146 106.105 50.9187 110.109 51.5207 117.633 53.8214 124.456 57.4697 130.402 62.3017 135.307 68.1587 139.012 74.8827 141.349 82.2977 141.961 86.2446 142.166 90.2569 140.834 90.3249 140.63 86.3466 140.637 86.4143 140.038 82.5509 140.061 82.6488 137.759 75.345 137.811 75.4661 134.169 68.8567 134.242 68.9628 129.419 63.2043 129.509 63.2935 123.663 58.5423 123.77 58.6129 117.06 55.0254 117.18 55.0752 109.765 52.808 109.861 52.8297 105.939 52.2401 106.005 52.2467 101.967 52.0458 102.033 52.0458 97.9946 52.2467 98.0608 52.2401 94.1388 52.8297 94.2349 52.808 86.8203 55.0752 86.94 55.0254 80.2303 58.6129 80.3366 58.5423 74.4907 63.2935 74.5813 63.2043 69.758 68.9628 69.8307 68.8567 66.1888 75.4661 66.2406 75.345 63.939 82.6488 63.9619 82.5509 63.3633 86.4143 63.3703 86.3466 63.2338 89.0087ZM68.199 81.5997 62.4999 90.294 57.7195 81.065C57.5504 80.7384 57.6786 80.3368 58.0059 80.168 58.3333 79.9992 58.7358 80.1272 58.905 80.4538L63.1602 88.6691 62.0091 88.6103 67.0823 80.871C67.284 80.5633 67.6974 80.477 68.0058 80.6783 68.3142 80.8795 68.4007 81.292 68.199 81.5997Z" fill="#172C51"/><path d="M9.49999 88.6276 194.828 88.6276 194.828 89.9589 9.49999 89.9589ZM193.494 85.2994 201.5 89.2933 193.494 93.2871Z" fill="#172C51"/><path d="M101.5 81.3117 101.5 99.2702" stroke="#172C51" stroke-width="1.33437" stroke-miterlimit="8" fill="none" fill-rule="evenodd"/><text font-family="Calibri,Calibri_MSFontService,sans-serif" font-weight="700" font-size="14.6442" transform="matrix(1 0 0 0.99769 97.2122 123)">0</text><text font-family="Yu Gothic,Yu Gothic_MSFontService,sans-serif" font-weight="700" font-size="14.6442" transform="matrix(1 0 0 0.99769 79.7913 43)">×</text><text font-family="Calibri,Calibri_MSFontService,sans-serif" font-weight="700" font-size="14.6442" transform="matrix(1 0 0 0.99769 94.4694 43)">(</text><text font-family="Calibri,Calibri_MSFontService,sans-serif" font-weight="700" font-size="14.6442" transform="matrix(1 0 0 0.99769 98.9729 43)">-</text><text font-family="Calibri,Calibri_MSFontService,sans-serif" font-weight="700" font-size="14.6442" transform="matrix(1 0 0 0.99769 103.476 43)">1)</text><path d="M158.1 91.6405 157.873 96.172 157.007 101.884 155.598 107.398 153.676 112.684 151.269 117.714 148.406 122.457 145.115 126.886 141.426 130.972 137.367 134.686 132.966 137.998 128.252 140.88 123.254 143.303 118.001 145.239 112.522 146.657 106.845 147.529 101 147.826 95.1553 147.529 89.4784 146.657 83.9988 145.239 78.7456 143.303 73.7478 140.88 69.0342 137.998 64.6334 134.686 60.5741 130.972 56.8848 126.886 53.5943 122.457 50.7311 117.714 48.324 112.684 46.4017 107.398 44.9932 101.884 44.127 96.172 43.8337 90.3242 45.1664 90.2576 45.4581 96.0721 45.4514 96.0058 46.3076 101.652 46.2944 101.587 47.6867 107.037 47.6673 106.975 49.5672 112.2 49.5421 112.14 51.9213 117.111 51.8908 117.054 54.7209 121.743 54.6853 121.69 57.9378 126.068 57.8975 126.019 61.5441 130.057 61.4993 130.012 65.5116 133.683 65.4625 133.642 69.8121 136.916 69.7589 136.88 74.4174 139.728 74.3604 139.697 79.2993 142.092 79.2387 142.066 84.4297 143.978 84.3661 143.958 89.7808 145.36 89.7148 145.346 95.3247 146.208 95.2571 146.201 101.034 146.494 100.966 146.494 106.743 146.201 106.675 146.208 112.285 145.346 112.219 145.36 117.634 143.958 117.57 143.978 122.761 142.066 122.701 142.092 127.64 139.697 127.583 139.728 132.241 136.88 132.188 136.916 136.537 133.642 136.488 133.683 140.501 130.012 140.456 130.057 144.102 126.019 144.062 126.068 147.315 121.69 147.279 121.743 150.109 117.054 150.079 117.111 152.458 112.14 152.433 112.2 154.333 106.975 154.313 107.037 155.706 101.587 155.692 101.652 156.549 96.0058 156.542 96.0721 156.768 91.574ZM151.811 98.9883 157.5 90.2878 162.291 99.5117C162.46 99.8381 162.332 100.24 162.005 100.409 161.678 100.578 161.275 100.451 161.106 100.124L156.842 91.9135 157.993 91.971 152.928 99.7158C152.727 100.024 152.313 100.11 152.005 99.9095 151.696 99.7087 151.609 99.2962 151.811 98.9883Z" fill="#172C51"/><text font-family="Yu Gothic,Yu Gothic_MSFontService,sans-serif" font-weight="700" font-size="14.6442" transform="matrix(1 0 0 0.99769 81.1635 168)">×</text><text font-family="Calibri,Calibri_MSFontService,sans-serif" font-weight="700" font-size="14.6442" transform="matrix(1 0 0 0.99769 95.8416 168)">(</text><text font-family="Calibri,Calibri_MSFontService,sans-serif" font-weight="700" font-size="14.6442" transform="matrix(1 0 0 0.99769 100.345 168)">-</text><text font-family="Calibri,Calibri_MSFontService,sans-serif" font-weight="700" font-size="14.6442" transform="matrix(1 0 0 0.99769 104.849 168)">1)</text><text font-family="Yu Gothic,Yu Gothic_MSFontService,sans-serif" font-weight="700" font-size="14.6442" transform="matrix(1 0 0 0.99769 314.924 202)">複素数</text><path d="M243.5 88.6276 428.828 88.6276 428.828 89.9589 243.5 89.9589ZM427.494 85.2994 435.5 89.2933 427.494 93.2871Z" fill="#172C51"/><path d="M336.833 164.12 336.833 16.1345 338.167 16.1345 338.167 164.12ZM333.497 17.4657 337.5 9.47798 341.503 17.4657Z" fill="#172C51"/><path d="M340.854 48.7891 343.557 48.9287 347.497 49.5441 351.3 50.5448 354.962 51.9161 361.687 55.6512 367.557 60.6074 372.399 66.6129 376.055 73.505 378.36 81.1043 378.963 85.1474 379.166 89.2606 377.834 89.326 377.632 85.2457 377.639 85.3109 377.048 81.3485 377.069 81.4433 374.797 73.9522 374.845 74.0708 371.25 67.2919 371.32 67.3978 366.557 61.4915 366.646 61.5824 360.874 56.7094 360.981 56.7828 354.356 53.1034 354.446 53.145 350.863 51.803 350.927 51.8235 347.19 50.8401 347.257 50.8541 343.384 50.2493 343.453 50.2565 340.785 50.1186ZM348.208 55.0771 339.497 49.3855 348.75 44.6221C349.078 44.4536 349.48 44.5818 349.649 44.9085 349.818 45.2352 349.69 45.6367 349.362 45.8052L341.125 50.0454 341.185 48.897 348.939 53.9634C349.247 54.1648 349.333 54.5774 349.131 54.8849 348.929 55.1925 348.516 55.2785 348.208 55.0771Z" fill="#172C51"/><text font-family="Yu Gothic,Yu Gothic_MSFontService,sans-serif" font-weight="700" font-size="14.6442" transform="matrix(1 0 0 0.99769 371.847 65)">×</text><text font-family="Cambria Math,Cambria Math_MSFontService,sans-serif" font-weight="400" font-size="14.6442" transform="matrix(1 0 0 0.99769 386.525 65)">𝒊</text><path d="M289.9 88.941 290.088 85.2253 290.841 80.3051 292.065 75.5557 293.735 71.0025 295.827 66.6705 298.323 62.5712 304.378 55.2499 311.716 49.2092 315.825 46.7188 320.167 44.632 324.731 42.9655 329.491 41.7443 334.423 40.9934 339.466 40.7393 339.534 42.0689 334.524 42.3213 334.591 42.3145 329.725 43.0553 329.791 43.042 325.095 44.2466 325.158 44.2271 320.656 45.871 320.717 45.8456 316.433 47.9042 316.49 47.8734 312.45 50.3221 312.528 50.2666 305.276 56.2361 305.366 56.1463 299.383 63.3814 299.439 63.3034 296.984 67.3341 297.015 67.2774 294.952 71.5508 294.977 71.4907 293.329 75.9822 293.349 75.9192 292.142 80.6043 292.155 80.5389 291.413 85.3929 291.419 85.3261 291.233 89.0082ZM296.193 81.596 290.5 90.294 285.714 81.068C285.544 80.7416 285.672 80.3399 285.999 80.1709 286.327 80.0019 286.729 80.1296 286.899 80.4561L291.159 88.6686 290.008 88.6106 295.076 80.8681C295.278 80.5603 295.691 80.4737 296 80.6747 296.308 80.8757 296.395 81.2882 296.193 81.596Z" fill="#172C51"/><text font-family="Yu Gothic,Yu Gothic_MSFontService,sans-serif" font-weight="700" font-size="14.6442" transform="matrix(1 0 0 0.99769 273.808 56)">×</text><text font-family="Cambria Math,Cambria Math_MSFontService,sans-serif" font-weight="400" font-size="14.6442" transform="matrix(1 0 0 0.99769 288.486 56)">𝒊</text><path d="M335.147 128.801 332.445 128.665 328.49 128.063 321.059 125.762 314.32 122.112 308.449 117.28 303.605 111.422 299.947 104.699 297.64 97.2847 297.037 93.3388 296.834 89.3269 298.166 89.2597 298.368 93.238 298.361 93.1712 298.952 97.0346 298.93 96.9377 301.202 104.241 301.151 104.121 304.747 110.731 304.675 110.625 309.437 116.383 309.347 116.293 315.119 121.045 315.013 120.973 321.638 124.56 321.517 124.51 328.838 126.777 328.741 126.755 332.613 127.344 332.546 127.337 335.214 127.472ZM327.785 122.523 336.503 128.203 327.256 132.979C326.928 133.148 326.526 133.02 326.357 132.693 326.187 132.367 326.315 131.965 326.642 131.796L334.874 127.546 334.816 128.694 327.055 123.638C326.747 123.437 326.66 123.024 326.862 122.716 327.063 122.409 327.476 122.322 327.785 122.523Z" fill="#172C51"/><text font-family="Yu Gothic,Yu Gothic_MSFontService,sans-serif" font-weight="700" font-size="14.6442" transform="matrix(1 0 0 0.99769 279.108 125)">×</text><text font-family="Cambria Math,Cambria Math_MSFontService,sans-serif" font-weight="400" font-size="14.6442" transform="matrix(1 0 0 0.99769 293.787 125)">𝒊</text><path d="M388.1 90.6432 387.912 94.3588 387.159 99.2791 385.935 104.029 384.265 108.582 382.173 112.914 379.677 117.013 373.622 124.334 366.284 130.375 362.175 132.865 357.833 134.952 353.269 136.619 348.509 137.84 343.577 138.591 338.534 138.845 338.466 137.515 343.476 137.263 343.409 137.27 348.275 136.529 348.209 136.542 352.905 135.338 352.842 135.357 357.344 133.713 357.283 133.739 361.567 131.68 361.51 131.711 365.55 129.262 365.472 129.318 372.724 123.348 372.634 123.438 378.617 116.203 378.561 116.281 381.016 112.25 380.985 112.307 383.048 108.033 383.023 108.093 384.671 103.602 384.651 103.665 385.858 98.9799 385.845 99.0453 386.587 94.1913 386.581 94.2581 386.767 90.576ZM381.807 97.9882 387.5 89.2902 392.286 98.5162C392.456 98.8426 392.328 99.2443 392.001 99.4133 391.673 99.5823 391.271 99.4546 391.101 99.1281L386.841 90.9156 387.992 90.9735 382.924 98.7161C382.722 99.0239 382.309 99.1105 382 98.9095 381.692 98.7085 381.605 98.296 381.807 97.9882Z" fill="#172C51"/><text font-family="Yu Gothic,Yu Gothic_MSFontService,sans-serif" font-weight="700" font-size="14.6442" transform="matrix(1 0 0 0.99769 369.883 137)">×</text><text font-family="Cambria Math,Cambria Math_MSFontService,sans-serif" font-weight="400" font-size="14.6442" transform="matrix(1 0 0 0.99769 384.561 137)">𝒊</text><path d="M208.5 83.0576 223 83.0576 223 77.3209 234.5 88.7944 223 100.268 223 94.5311 208.5 94.5311Z" stroke="#172C51" stroke-width="1.33437" stroke-miterlimit="8" fill="none" fill-rule="evenodd"/><path d="M440.5 84.0554 456 84.0554 456 78.3186 467.5 89.7921 456 101.266 456 95.5288 440.5 95.5288Z" stroke="#172C51" stroke-width="1.33437" stroke-miterlimit="8" fill="none" fill-rule="evenodd"/><path d="M0-0.665644 119.052-0.665644 119.052 0.665644 0 0.665644ZM117.721-3.99387 125.709 0 117.721 3.99387Z" fill="#172C51" transform="matrix(1.00232 0 0 -1 508.5 88.2955)"/><path d="M535.833 120.222 535.833 17.1321 537.167 17.1321 537.167 120.222ZM532.497 18.4634 536.5 10.4757 540.503 18.4634Z" fill="#172C51"/><path d="M539.853 49.785 542.555 49.9211 546.51 50.5233 553.941 52.8247 560.68 56.4741 566.551 61.3069 571.395 67.1643 575.053 73.8878 577.36 81.3018 577.963 85.2478 578.166 89.2597 576.834 89.3269 576.632 85.3485 576.639 85.4154 576.048 81.552 576.07 81.6489 573.798 74.3451 573.849 74.4653 570.253 67.8559 570.325 67.9619 565.563 62.2034 565.653 62.2932 559.881 57.5419 559.987 57.6135 553.362 54.026 553.483 54.0767 546.162 51.8095 546.259 51.8318 542.387 51.2422 542.454 51.249 539.786 51.1146ZM547.215 56.0635 538.497 50.3831 547.744 45.6079C548.071 45.4389 548.474 45.5665 548.643 45.893 548.813 46.2195 548.685 46.6212 548.358 46.7902L540.126 51.0409 540.184 49.8924 547.945 54.9488C548.253 55.1499 548.34 55.5623 548.138 55.8701 547.937 56.1779 547.524 56.2645 547.215 56.0635Z" fill="#172C51"/><text font-family="Yu Gothic,Yu Gothic_MSFontService,sans-serif" font-weight="700" font-size="14.6442" transform="matrix(1 0 0 0.99769 570.669 66)">×</text><text font-family="Cambria Math,Cambria Math_MSFontService,sans-serif" font-weight="400" font-size="14.6442" transform="matrix(1 0 0 0.99769 585.347 66)">?</text><path d="M552.952 74.8175 481.859 140.146 480.955 139.167 552.048 73.8383ZM485.101 141.692 476.5 144.166 479.677 135.817Z" fill="#172C51"/><path d="M498.284 115.833 497.148 110.319 496.294 103.558 495.977 96.907 496.179 90.4046 496.884 84.0899 498.074 78.0022 499.733 72.1807 501.845 66.6646 504.393 61.4933 507.361 56.7065 510.733 52.3443 514.492 48.447 518.622 45.0556 523.105 42.2114 527.923 39.956 533.015 38.3439 533.419 39.6128 528.369 41.2117 528.451 41.1798 523.711 43.3986 523.785 43.3577 519.373 46.1571 519.439 46.1094 515.37 49.4503 515.427 49.398 511.72 53.2412 511.768 53.1861 508.439 57.4924 508.478 57.4361 505.545 62.1662 505.577 62.1097 503.056 67.2244 503.081 67.1683 500.99 72.6284 501.009 72.573 499.365 78.3394 499.378 78.2847 498.199 84.3181 498.207 84.2643 497.508 90.5254 497.512 90.4724 497.312 96.9221 497.311 96.8699 497.626 103.469 497.622 103.417 498.469 110.127 498.46 110.076 499.591 115.565ZM502.533 107.15 499.204 116.993 492.254 109.257C492.008 108.983 492.031 108.562 492.306 108.317 492.58 108.072 493.002 108.095 493.248 108.368L499.434 115.255 498.305 115.486 501.268 106.724C501.386 106.376 501.765 106.189 502.114 106.306 502.463 106.424 502.65 106.801 502.533 107.15Z" fill="#172C51"/><path d="M561.518 87.9797 560.466 90.7941 558.572 94.6278 556.337 98.1999 553.778 101.509 547.854 107.206 540.985 111.643 533.396 114.697 525.318 116.254 521.133 116.44 516.918 116.21 512.686 115.55 508.495 114.456 508.833 113.168 512.991 114.254 512.925 114.24 517.091 114.889 517.025 114.882 521.173 115.109 521.106 115.109 525.21 114.927 525.113 114.938 533.079 113.402 532.956 113.439 540.426 110.432 540.313 110.491 547.075 106.123 546.975 106.203 552.816 100.584 552.751 100.657 555.26 97.4127 555.223 97.4669 557.423 93.9512 557.39 94.0094 559.254 90.2358 559.227 90.2975 560.267 87.5146ZM553.297 93.0888 561.355 86.5093 563.129 96.746C563.192 97.1082 562.948 97.4527 562.585 97.5153 562.222 97.5779 561.877 97.3351 561.814 96.9728L560.235 87.8606 561.315 88.2623 554.142 94.119C553.857 94.3519 553.437 94.31 553.203 94.0255 552.97 93.741 553.012 93.3216 553.297 93.0888Z" fill="#172C51"/><text font-family="Yu Gothic,Yu Gothic_MSFontService,sans-serif" font-weight="700" font-size="14.6442" transform="matrix(1 0 0 0.99769 473.556 78)">×</text><text font-family="Cambria Math,Cambria Math_MSFontService,sans-serif" font-weight="400" font-size="14.6442" transform="matrix(1 0 0 0.99769 488.234 78)">?</text><text font-family="Yu Gothic,Yu Gothic_MSFontService,sans-serif" font-weight="700" font-size="14.6442" transform="matrix(1 0 0 0.99769 538.94 126)">×</text><text font-family="Cambria Math,Cambria Math_MSFontService,sans-serif" font-weight="400" font-size="14.6442" transform="matrix(1 0 0 0.99769 553.618 126)">?</text><text font-family="Yu Gothic,Yu Gothic_MSFontService,sans-serif" font-weight="700" font-size="14.6442" transform="matrix(1 0 0 0.99769 485.167 202)">実数の三つ組み</text><text font-family="Calibri,Calibri_MSFontService,sans-serif" font-weight="700" font-size="14.6442" transform="matrix(1 0 0 0.99769 591.25 202)">?</text></g></svg>